<?xml version="1.0" encoding="UTF-8"?>
<svg id="Layer_2" data-name="Layer 2" xmlns="http://www.w3.org/2000/svg" viewBox="0 0 600 600">
  <defs>
    <style>
      .cls-1 {
        fill: #fff;
      }
    </style>
  </defs>
  <g id="Layer_3" data-name="Layer 3">
    <g>
      <rect x="0" y="0" width="600" height="600" rx="300" ry="300"/>
      <g>
        <path class="cls-1" d="M95.45,300c.13,47.61-45.46,18.17-45.45-1.56,15.88,8.56,31.03,9.06,45.45,1.56Z"/>
        <path class="cls-1" d="M95.45,459.09c0-94.63,93.81-103.68,181.82-90.91-17.25-47.42-242.68-97.77-181.82,90.91Z"/>
        <path class="cls-1" d="M220.45,265.91c-22.73-102.27-130.76-44.66-125-125-51.26,104.46,41.84,209.37,113.64,136.36-11.36-22.73-68.18-34.09-68.18-34.09,0,0,45.45,0,79.55,22.73Z"/>
        <path class="cls-1" d="M243.18,209.09s0-34.09-34.09-68.18c35.81,30.65,43.46,38.43,45.45,68.18,53.85-91.96-68.18-90.91-79.55-159.09,0,0-79.55,159.09,68.18,159.09Z"/>
        <path class="cls-1" d="M436.36,356.82c-5,30.88-12.52,42.41-22.73,56.82-18.19,21.47-36.1,36.14-68.18,45.45-47.08,13.67-67.69,37.14-90.91,68.18,38.84-18.4,85.24-17,113.64-22.73,45.45-11.36,94.02-51.32,90.91-90.91-8.26,11.41-16.68,23.7-22.73,22.73,11.36-34.09,11.36-45.45,0-79.55Z"/>
        <path class="cls-1" d="M413.64,345.45c-41.65,51.18-104.15,50.38-136.36,45.45-172.52-26.37-196.57,117.78-90.91,159.09-39.49-82.44,45.45-123.53,113.64-113.64-72.2,17.76-108.51,52.75-90.91,113.64,8.86-42.19,79.55-90.91,136.36-113.64,33.36-13.35,56.59-31.71,68.18-90.91Z"/>
        <path class="cls-1" d="M425,95.45c-19.58,27.98-56.7,35.64-56.82,68.18,3.24-7.34,2.76-79.55,0-79.55-12.91,24.09-125.26,82.36-68.18,136.36-22.73,11.36-40.38,12.59-45.45,34.09,11.84-2.92,20.58-3.72,22.73,0-16.67,18.62-33.71,49.49-45.45,56.82,57.1,0,45.45-22.73,90.91-22.73-22.73,22.73-19.72,44.26-45.45,45.45,45.18,57.66,103.46-30.62,136.36-22.73,41.4,9.94,78.57,64.26,136.36-22.73-136.36-56.82-79.55-90.91-136.36-113.64,4.51-3.46,9.68-6.51,11.36-11.36,6.53-18.78,1.96-68.19,0-68.18Zm-11.36,159.09c-22.73,0-22.73-12.68-45.45-22.73,21.79-3.35,41.07-3.66,45.45,0,11.91,9.96,11.36,11.36,22.73,22.73h-22.73Z"/>
      </g>
    </g>
  </g>
</svg>