<?xml version="1.0" encoding="UTF-8"?>
<svg id="Layer_2" data-name="Layer 2" xmlns="http://www.w3.org/2000/svg" viewBox="0 0 500 500">
  <defs>
    <style>
      .cls-1 {
        fill: #40953c;
      }

      .cls-2 {
        fill: #52b148;
      }

      .cls-3 {
        fill: #58595b;
      }

      .cls-4 {
        fill: #4d4d4f;
      }
    </style>
  </defs>
  <g id="Layer_3" data-name="Layer 3">
    <g>
      <path class="cls-2" d="M45.45,250C45.59,297.61,0,268.17,0,248.44c15.88,8.56,31.03,9.06,45.45,1.56Z"/>
      <path class="cls-1" d="M44.61,250.41c-4.89,25.67-29.72,14.85-40.07,.24C3.03,249.98,1.52,249.26,0,248.44c0,19.72,45.59,49.16,45.45,1.56-.28,.15-.57,.27-.85,.41Z"/>
      <path class="cls-2" d="M45.45,409.09c0-94.63,93.81-103.68,181.82-90.91-17.25-47.42-242.68-97.77-181.82,90.91Z"/>
      <path class="cls-1" d="M200.05,293.41c-76.1-8.55-152.07,1.92-164.26,72.16,1.31,12.84,4.43,27.3,9.66,43.52,0-94.63,93.81-103.68,181.82-90.91-3.15-8.65-13.22-17.4-27.22-24.77Z"/>
      <path class="cls-2" d="M170.45,215.91c-22.73-102.27-130.76-44.66-125-125-51.26,104.46,41.84,209.37,113.64,136.36-11.36-22.73-68.18-34.09-68.18-34.09,0,0,45.45,0,79.55,22.73Z"/>
      <path class="cls-1" d="M31.22,140.99c-7.37,83.71,67.71,147.45,127.87,86.28-2.32-4.63-6.53-8.8-11.76-12.49-51.98,38.39-110.12-7.13-116.11-73.8Z"/>
      <path class="cls-2" d="M193.18,159.09s0-34.09-34.09-68.18c35.81,30.65,43.46,38.43,45.45,68.18C258.4,67.13,136.36,68.18,125,0c0,0-79.55,159.09,68.18,159.09Z"/>
      <path class="cls-1" d="M103.73,78.76c-1.67,40.03,15.11,80.33,89.46,80.33,0,0-.01-9.18-4.77-22.76-57.55-.99-79.28-26.92-84.69-57.57Z"/>
      <path class="cls-2" d="M386.36,306.82c-5,30.88-12.52,42.41-22.73,56.82-18.19,21.47-36.1,36.14-68.18,45.45-47.08,13.67-67.69,37.14-90.91,68.18,38.84-18.4,85.24-17,113.64-22.73,45.45-11.36,94.02-51.32,90.91-90.91-8.26,11.41-16.68,23.7-22.73,22.73,11.36-34.09,11.36-45.45,0-79.55Z"/>
      <path class="cls-1" d="M409.09,363.64c-4.29,5.93-8.63,12.09-12.65,16.51-16.94,24.14-48.34,44.16-78.4,51.67-21.86,4.41-54.38,4.61-85.9,12.84-9.94,9.64-18.57,20.55-27.59,32.61,38.84-18.4,85.24-17,113.64-22.73,45.45-11.36,94.02-51.32,90.91-90.91Z"/>
      <path class="cls-2" d="M363.64,295.45c-41.65,51.18-104.15,50.38-136.36,45.45-172.52-26.37-196.57,117.78-90.91,159.09-39.49-82.44,45.45-123.53,113.64-113.64-72.2,17.76-108.51,52.75-90.91,113.64,8.86-42.19,79.55-90.91,136.36-113.64,33.36-13.35,56.59-31.71,68.18-90.91Z"/>
      <g>
        <path class="cls-1" d="M250,386.36c-.23-.03-.47-.06-.7-.09-.27,.16-.55,.32-.82,.48,.51-.13,1.01-.26,1.52-.38Z"/>
        <path class="cls-1" d="M73.97,408.22c-5.79,34.93,15.54,73.46,62.39,91.78-4.51-9.41-7.37-18.27-8.85-26.58-31.34-15.02-49.38-39.72-53.54-65.2Z"/>
        <path class="cls-1" d="M354.62,305.43c-12.97,34.1-32.93,47.71-59.16,58.21-14.89,5.95-30.73,13.7-46.16,22.63,.23,.03,.47,.06,.7,.09-.51,.13-1.02,.26-1.52,.38-43.14,25.14-82.89,59.58-89.38,90.53-1.69-5.84-2.88-11.44-3.59-16.81-1.75,11.77-.64,24.9,3.59,39.54,8.86-42.19,79.55-90.91,136.36-113.64,33.36-13.35,56.59-31.71,68.18-90.91-2.91,3.58-5.92,6.89-9.02,9.97Z"/>
        <path class="cls-1" d="M248.48,386.75c-53.94,13.55-87.5,36.89-92.97,73.71,.71,5.37,1.9,10.97,3.59,16.81,6.5-30.94,46.24-65.39,89.38-90.53Z"/>
      </g>
      <path class="cls-3" d="M375,45.45c-19.58,27.98-56.7,35.64-56.82,68.18,3.24-7.34,2.76-79.55,0-79.55-12.91,24.09-125.26,82.36-68.18,136.36-22.73,11.36-40.38,12.59-45.45,34.09,11.84-2.92,20.58-3.72,22.73,0-16.67,18.62-33.71,49.49-45.45,56.82,57.1,0,45.45-22.73,90.91-22.73-22.73,22.73-19.72,44.26-45.45,45.45,45.18,57.66,103.46-30.62,136.36-22.73,41.4,9.94,78.57,64.26,136.36-22.73-136.36-56.82-79.55-90.91-136.36-113.64,4.51-3.46,9.68-6.51,11.36-11.36,6.53-18.78,1.96-68.19,0-68.18Zm-11.36,159.09c-22.73,0-22.73-12.68-45.45-22.73,21.79-3.35,41.07-3.66,45.45,0,11.91,9.96,11.36,11.36,22.73,22.73h-22.73Z"/>
      <g>
        <path class="cls-4" d="M202.58,237.36c-7.77,10.89-14.92,20.36-20.76,24.01,48.12,0,47.42-16.14,73.22-21.22,4.18-7.22,9.09-15.64,17.69-24.24-38.91,0-35.99,16.65-70.15,21.45Z"/>
        <path class="cls-4" d="M363.64,238.64c-28.66-6.87-76.56,59.18-118.29,38.27-4.2,4.16-9.56,6.79-18.07,7.19,45.18,57.66,103.46-30.62,136.36-22.73,41.4,9.94,78.57,64.26,136.36-22.73-4.43-1.85-8.64-3.67-12.67-5.46-50.72,61.8-85.4,14.65-123.69,5.46Z"/>
      </g>
    </g>
  </g>
</svg>